<svg width="255" height="24" viewBox="0 0 255 24" fill="none" xmlns="http://www.w3.org/2000/svg">
<path fill-rule="evenodd" clip-rule="evenodd" d="M48.2755 1.24069L48.2755 22.7593C48.2755 23.2258 47.9024 23.5931 47.4409 23.5931H44.3875C44.1322 23.5931 43.8868 23.4739 43.7297 23.2655L32.8709 8.84367L32.8709 22.7494C32.8709 23.2159 32.4978 23.5831 32.0364 23.5831H28.7179C28.2564 23.5831 27.8833 23.206 27.8833 22.7494L27.8833 1.24069C27.8833 0.774194 28.2564 0.397022 28.7179 0.397022L32.1346 0.397022C32.3898 0.397022 32.6353 0.516129 32.7924 0.724566L43.2977 14.6799V1.24069C43.2977 0.774194 43.6708 0.397022 44.1323 0.397022L47.4508 0.397022C47.9122 0.397022 48.2853 0.774194 48.2853 1.24069M105.849 19.0571L94.2241 19.0571V14.1836H104.209C104.67 14.1836 105.044 13.8065 105.044 13.34V10.4814C105.044 10.0149 104.67 9.63772 104.209 9.63772H94.2241V4.933L105.682 4.933C106.143 4.933 106.516 4.55583 106.516 4.08933V1.24069C106.516 0.774194 106.143 0.397022 105.682 0.397022L90.0317 0.397022C89.5703 0.397022 89.1972 0.774194 89.1972 1.24069V22.7593C89.1972 23.2258 89.5703 23.603 90.0317 23.603L105.839 23.603C106.3 23.603 106.673 23.2258 106.673 22.7593V19.9007C106.673 19.4342 106.3 19.0571 105.839 19.0571M224.569 0.397022L221.182 0.397022C220.72 0.397022 220.347 0.774194 220.347 1.24069V13.6873C220.347 17.3697 218.482 19.2556 215.399 19.2556C212.316 19.2556 210.45 17.3002 210.45 13.5186V1.24069C210.45 0.774194 210.077 0.397022 209.616 0.397022L206.229 0.397022C205.767 0.397022 205.394 0.774194 205.394 1.24069V13.6576C205.394 20.4864 209.164 23.9603 215.33 23.9603C221.496 23.9603 225.394 20.5161 225.394 13.4888V1.24069C225.394 0.774194 225.02 0.397022 224.559 0.397022M129.824 0.903226C129.697 0.595534 129.392 0.397022 129.059 0.397022L125.504 0.397022C125.171 0.397022 124.866 0.595534 124.739 0.903226L115.618 22.4119C115.382 22.9677 115.785 23.5831 116.383 23.5831H119.712C120.046 23.5831 120.35 23.3747 120.478 23.0571L121.214 21.2308L124.179 13.866L125.21 11.335L127.232 6.35236L130.276 13.8759L133.241 21.2407L133.977 23.067C134.105 23.3846 134.409 23.5931 134.743 23.5931H138.209C138.808 23.5931 139.21 22.9777 138.975 22.4218L129.824 0.903226ZM16.6416 19.0571L5.01704 19.0571V14.1836L15.002 14.1836C15.4635 14.1836 15.8366 13.8065 15.8366 13.34V10.4814C15.8366 10.0149 15.4635 9.63772 15.002 9.63772L5.01704 9.63772L5.01704 4.933L16.4747 4.933C16.9362 4.933 17.3093 4.55583 17.3093 4.08933V1.24069C17.3093 0.774194 16.9362 0.397022 16.4747 0.397022L0.834536 0.397022C0.373087 0.397022 0 0.774194 0 1.24069L0 22.7494C0 23.2159 0.373087 23.5931 0.834536 23.5931L16.6416 23.5931C17.1031 23.5931 17.4762 23.2159 17.4762 22.7494V19.8908C17.4762 19.4243 17.1031 19.0471 16.6416 19.0471M79.9977 11.9305V12C79.9977 18.531 75.0199 23.603 67.8036 23.603H59.6841C59.2226 23.603 58.8495 23.2258 58.8495 22.7692L58.8495 1.23077C58.8495 0.764268 59.2226 0.397022 59.6841 0.397022L67.8036 0.397022C75.0101 0.397022 79.9977 5.3995 79.9977 11.9305ZM74.7254 12C74.7254 7.89082 71.937 5.01241 67.8134 5.01241H63.9157V18.9975H67.8134C71.9469 18.9975 74.7254 16.1787 74.7254 12.0695V12ZM196.087 11.9305V12C196.087 18.5906 190.942 24 183.863 24C176.784 24 171.699 18.66 171.699 12.0695V12C171.699 5.40943 176.843 0 183.922 0C191.001 0 196.087 5.33002 196.087 11.9305ZM190.804 12C190.804 8.01985 187.918 4.70471 183.853 4.70471C179.789 4.70471 176.971 7.95037 176.971 11.9305V12C176.971 15.9801 179.857 19.2953 183.922 19.2953C187.987 19.2953 190.804 16.0496 190.804 12.0695V12ZM250.42 16.1489L254.573 22.2829C254.946 22.8387 254.553 23.5931 253.886 23.5931H250.007C249.733 23.5931 249.467 23.4541 249.32 23.2258L244.647 16.1787H240.68V22.7593C240.68 23.2258 240.307 23.603 239.846 23.603H236.459C235.997 23.603 235.624 23.2258 235.624 22.7593V1.24069C235.624 0.774194 235.997 0.397022 236.459 0.397022L246.12 0.397022C249.035 0.397022 251.294 1.23077 252.806 2.74938C254.082 4.0397 254.769 5.866 254.769 8.04963V8.11911C254.769 11.464 253.169 13.6973 250.744 14.9181C250.292 15.1464 250.125 15.7221 250.42 16.1489ZM249.654 8.31762C249.654 6.13399 248.142 5.00248 245.688 5.00248H240.67V11.6625H245.786C248.24 11.6625 249.654 10.3325 249.654 8.3871V8.31762ZM166.259 1.56824C166.495 1.01241 166.092 0.397022 165.493 0.397022L162.028 0.397022C161.694 0.397022 161.39 0.605459 161.262 0.923077L160.526 2.74938L157.56 10.1042L154.507 17.6278L152.485 12.6352L151.454 10.1042L148.489 2.74938L147.752 0.923077C147.625 0.605459 147.32 0.397022 146.986 0.397022L143.658 0.397022C143.059 0.397022 142.657 1.01241 142.892 1.56824L152.013 23.0769C152.141 23.3846 152.445 23.5831 152.779 23.5831H156.333C156.667 23.5831 156.971 23.3846 157.099 23.0769L166.23 1.56824H166.259Z" fill="white"/>
</svg>
